<?xml version="1.0" encoding="UTF-8"?>
<svg id="Layer_1" data-name="Layer 1" xmlns="http://www.w3.org/2000/svg" viewBox="0 0 116.25 116.25">
  <defs>
    <style>
      .cls-1 {
        fill: #fdef79;
      }

      .cls-2 {
        fill: #fbd700;
      }

      .cls-3 {
        fill: #f9c400;
      }

      .cls-4 {
        fill: #f9bc00;
      }

      .cls-5 {
        fill: #fbe100;
      }
    </style>
  </defs>
  <circle class="cls-4" cx="58.12" cy="58.12" r="58.12"/>
  <ellipse class="cls-3" cx="42.75" cy="91.87" rx="21.75" ry="18"/>
  <path class="cls-2" d="M9.75,34.87c0-4.68,1.34-9.04,3.63-12.76.39-.77.84-1.66,1.3-2.59C25.33,7.55,40.84,0,58.12,0s33.4,7.85,44.06,20.23c1.07,2.15,1.69,4.57,1.69,7.14,0,8.91-7.22,16.12-16.12,16.12-.77,0-1.03-.05-2.25-.17-8.19-.39-15.75,1.28-21.5,3.8-6.68,2.93-13.92,8.1-21.96,10.78-.46.16-.92.3-1.39.43-.37.11-.71.19-1.06.27-.22.05-.44.11-.67.16-.59.12-1.15.22-1.67.26,0,0,0,0-.01,0-1.02.13-2.06.22-3.11.22-13.46,0-24.37-10.91-24.37-24.37Z"/>
  <path class="cls-5" d="M37.85,18.47c6.77-3.98,8.82-7.73,9.37-9.09C48.88,4.4,54.29.63,60.93.08c16.48.79,31.16,8.44,41.25,20.15,1.07,2.15,1.69,4.57,1.69,7.14,0,8.91-7.22,16.12-16.12,16.12-.77,0-1.03-.05-2.25-.17-8.19-.39-15.75,1.28-21.5,3.8-6.68,2.93-13.92,8.1-21.96,10.78-.46.16-.92.3-1.39.43-.37.11-.71.19-1.06.27-.22.05-.44.11-.67.16-.16.03-.3.04-.46.07,2.07-1.94,2.6-4.14,2.51-6.56-.76-7.47-5.06-12.65-7.1-14.73-.23-.21-.45-.42-.66-.65-.25-.23-.41-.37-.41-.37,0,0,0-.04,0-.06-1.79-2.03-2.85-4.5-2.85-7.16,0-4.63,3.19-8.66,7.92-10.84Z"/>
  <path class="cls-1" d="M89.59,22.93c-1.28,5.55-9.32,8.43-17.94,6.43-8.62-2-14.58-8.11-13.29-13.66,1.29-5.55,9.32-8.43,17.94-6.43,8.62,2,14.58,8.11,13.29,13.66Z"/>
</svg>