<?xml version="1.0" encoding="UTF-8"?>
<svg id="Layer_1" data-name="Layer 1" xmlns="http://www.w3.org/2000/svg" viewBox="0 0 164.62 143.97">
  <defs>
    <style>
      .cls-1 {
        fill: #f0f1ec;
      }

      .cls-2 {
        fill: #fff;
      }

      .cls-3 {
        fill: #fbfbfb;
      }

      .cls-4 {
        fill: #c9bdb8;
      }

      .cls-5 {
        fill: #f1f1f1;
      }

      .cls-6 {
        fill: #efe8e6;
      }

      .cls-7 {
        fill: #edeae8;
      }

      .cls-8 {
        fill: #e4dbd6;
      }

      .cls-9 {
        fill: #f7f7f7;
      }
    </style>
  </defs>
  <g>
    <path class="cls-5" d="M92.32,36.13c-.33,0-.65.02-.97.05h0c-.2.02-.4.03-.6.03-3.64,0-6.6-2.84-6.82-6.42,0-.13,0-.26,0-.39,0-16.24-13.16-29.4-29.4-29.4s-29.4,13.16-29.4,29.4,13.16,29.4,29.4,29.4c.17,0,.34,0,.5-.01h0s36.99.01,36.99.01h0c.09-.01.19,0,.28,0,6.26,0,11.33-5.07,11.33-11.33s-5.07-11.33-11.33-11.33Z"/>
    <path class="cls-7" d="M95.85,54.54c0,2.35-1.91,4.26-4.26,4.26h-38.62c-2.35,0-4.26-1.91-4.26-4.26h0c0-2.35,1.91-4.26,4.26-4.26h38.62c2.35,0,4.26,1.91,4.26,4.26h0Z"/>
    <g>
      <path class="cls-9" d="M30.29,19.38c0-2.57.68-4.97,1.83-7.01.2-.42.42-.91.65-1.42C38.11,4.37,45.91.22,54.59.22s16.78,4.31,22.14,11.12c.54,1.18.85,2.51.85,3.93,0,4.89-3.63,8.86-8.1,8.86-.39,0-.52-.02-1.13-.09-4.11-.21-7.92.7-10.8,2.09-3.36,1.61-7,4.45-11.03,5.93-.23.09-.46.16-.7.24-.18.06-.36.1-.53.15-.11.03-.22.06-.33.09-.3.07-.58.12-.84.14,0,0,0,0,0,0-.51.07-1.03.12-1.56.12-6.76,0-12.25-6-12.25-13.4Z"/>
      <path class="cls-3" d="M44.41,10.37c3.4-2.19,4.43-4.25,4.71-5,.83-2.74,3.55-4.81,6.89-5.11,8.28.43,15.66,4.64,20.73,11.08.54,1.18.85,2.51.85,3.93,0,4.89-3.63,8.86-8.1,8.86-.39,0-.52-.02-1.13-.09-4.11-.21-7.92.7-10.8,2.09-3.36,1.61-7,4.45-11.03,5.93-.23.09-.46.16-.7.24-.18.06-.36.1-.53.15-.11.03-.22.06-.33.09-.08.02-.15.02-.23.04,1.04-1.07,1.3-2.28,1.26-3.61-.38-4.1-2.54-6.96-3.57-8.1-.12-.11-.23-.23-.33-.35-.13-.13-.21-.2-.21-.2,0,0,0-.02,0-.03-.9-1.12-1.43-2.47-1.43-3.94,0-2.54,1.6-4.76,3.98-5.96Z"/>
      <path class="cls-2" d="M70.4,12.82c-.65,3.05-4.68,4.63-9.02,3.54-4.33-1.1-7.33-4.46-6.68-7.51.64-3.05,4.68-4.63,9.02-3.53s7.33,4.46,6.68,7.51Z"/>
    </g>
  </g>
  <path class="cls-5" d="M164.62,87.47c0,13.26-10.75,24-24,24s-24-10.75-24-24,10.75-24,24-24,24,10.75,24,24Z"/>
  <g>
    <circle class="cls-8" cx="94.5" cy="66.27" r="58.12"/>
    <path class="cls-1" d="M57.38,100.02c0,9.94,9.74,18,21.75,18s21.75-8.06,21.75-18-9.74-18-21.75-18-21.75,8.06-21.75,18Z"/>
    <path class="cls-6" d="M46.12,43.02c0-4.68,1.34-9.04,3.63-12.76.39-.77.84-1.66,1.3-2.59,10.65-11.98,26.16-19.53,43.44-19.53s33.4,7.85,44.06,20.23c1.07,2.16,1.69,4.57,1.69,7.14,0,8.91-7.22,16.12-16.12,16.12-.77,0-1.03-.05-2.25-.18-8.19-.39-15.75,1.28-21.5,3.8-6.68,2.93-13.92,8.1-21.96,10.78-.46.16-.92.3-1.39.43-.37.11-.71.19-1.06.27-.22.05-.44.11-.67.16-.59.12-1.15.21-1.67.26,0,0,0,0-.01,0-1.02.13-2.06.22-3.11.22-13.46,0-24.38-10.91-24.38-24.37Z"/>
    <path class="cls-1" d="M74.23,26.61c6.77-3.98,8.82-7.73,9.37-9.09,1.65-4.98,7.07-8.75,13.71-9.3,16.48.79,31.16,8.43,41.25,20.15,1.07,2.16,1.69,4.57,1.69,7.14,0,8.91-7.22,16.12-16.12,16.12-.77,0-1.03-.05-2.25-.18-8.19-.39-15.75,1.28-21.5,3.8-6.68,2.93-13.92,8.1-21.96,10.78-.46.16-.92.3-1.39.43-.37.11-.71.19-1.06.27-.22.05-.44.11-.67.16-.16.03-.3.04-.46.07,2.07-1.94,2.6-4.15,2.51-6.56-.76-7.46-5.06-12.65-7.1-14.73-.23-.21-.45-.42-.66-.64-.25-.23-.41-.37-.41-.37,0,0,0-.04,0-.06-1.8-2.03-2.85-4.5-2.85-7.16,0-4.63,3.19-8.66,7.91-10.84Z"/>
    <path class="cls-2" d="M125.96,31.07c-1.29,5.55-9.32,8.43-17.95,6.43-8.62-2-14.58-8.11-13.29-13.66,1.28-5.55,9.32-8.43,17.94-6.43,8.62,2,14.58,8.11,13.29,13.66Z"/>
  </g>
  <path class="cls-4" d="M131.13,109.97c0,17.67-14.33,32-32,32s-32-14.33-32-32,14.33-32,32-32,32,14.33,32,32Z"/>
  <g>
    <path class="cls-5" d="M102.25,109.47c-.5,0-.99.03-1.48.07h0c-.3.03-.6.04-.91.04-5.53,0-10.05-4.32-10.38-9.77,0-.2.02-.39.02-.59,0-24.71-20.04-44.75-44.75-44.75S0,74.51,0,99.22s20.03,44.75,44.75,44.75c.26,0,.51-.01.77-.02v.02h56.31v-.02c.14,0,.28.02.42.02,9.53,0,17.25-7.72,17.25-17.25s-7.72-17.25-17.25-17.25Z"/>
    <path class="cls-7" d="M107.62,137.49c0,3.58-2.9,6.48-6.48,6.48h-58.79c-3.58,0-6.48-2.9-6.48-6.48h0c0-3.58,2.9-6.48,6.48-6.48h58.79c3.58,0,6.48,2.9,6.48,6.48h0Z"/>
    <g>
      <path class="cls-9" d="M7.81,83.97c0-3.92,1.03-7.57,2.78-10.67.3-.64.64-1.39.99-2.17,8.14-10.02,20.01-16.34,33.23-16.34s25.55,6.57,33.7,16.93c.82,1.8,1.3,3.83,1.3,5.98,0,7.45-5.52,13.49-12.33,13.49-.59,0-.79-.04-1.72-.14-6.26-.33-12.05,1.07-16.45,3.18-5.11,2.45-10.65,6.77-16.79,9.02-.35.13-.71.25-1.07.36-.28.09-.55.16-.81.23-.17.04-.34.1-.51.13-.45.1-.88.18-1.28.22,0,0,0,0,0,0-.78.11-1.57.18-2.38.18-10.3,0-18.64-9.13-18.64-20.39Z"/>
      <path class="cls-3" d="M29.31,70.25c5.18-3.33,6.75-6.47,7.17-7.6,1.26-4.16,5.41-7.32,10.49-7.78,12.61.66,23.83,7.06,31.55,16.86.82,1.8,1.3,3.83,1.3,5.98,0,7.45-5.52,13.49-12.33,13.49-.59,0-.79-.04-1.72-.14-6.26-.33-12.05,1.07-16.45,3.18-5.11,2.45-10.65,6.77-16.79,9.02-.35.13-.71.25-1.07.36-.28.09-.55.16-.81.23-.17.04-.34.1-.51.13-.12.03-.23.03-.35.06,1.58-1.62,1.98-3.47,1.92-5.49-.58-6.25-3.87-10.59-5.43-12.32-.18-.17-.34-.35-.51-.54-.19-.2-.31-.31-.31-.31,0,0,0-.04,0-.05-1.37-1.7-2.18-3.76-2.18-5.99,0-3.87,2.44-7.25,6.05-9.07Z"/>
      <path class="cls-2" d="M68.88,73.98c-.98,4.64-7.13,7.05-13.73,5.38-6.6-1.67-11.15-6.79-10.17-11.43.98-4.64,7.13-7.05,13.73-5.38,6.6,1.67,11.15,6.79,10.17,11.43Z"/>
    </g>
  </g>
</svg>