<?xml version="1.0" encoding="UTF-8"?>
<svg id="Layer_1" data-name="Layer 1" xmlns="http://www.w3.org/2000/svg" viewBox="0 0 144.57 167.27">
  <defs>
    <style>
      .cls-1 {
        fill: #f0f1ec;
      }

      .cls-2 {
        fill: #41b4ec;
      }

      .cls-3 {
        fill: #57e7fd;
      }

      .cls-4 {
        fill: #fff;
      }

      .cls-5 {
        fill: #fbfbfb;
      }

      .cls-6 {
        fill: #c9bdb8;
      }

      .cls-7 {
        fill: #53c5f2;
      }

      .cls-8 {
        fill: #3fd8e8;
      }

      .cls-9 {
        fill: #f1f1f1;
      }

      .cls-10 {
        fill: #efe8e6;
      }

      .cls-11 {
        fill: #edeae8;
      }

      .cls-12 {
        fill: #e4dbd6;
      }

      .cls-13 {
        fill: #f7f7f7;
      }
    </style>
  </defs>
  <g>
    <circle class="cls-12" cx="100.32" cy="44.25" r="44.25" transform="translate(23.8 122.78) rotate(-69.55)"/>
    <path class="cls-1" d="M72.06,69.94c0,7.57,7.41,13.7,16.56,13.7s16.56-6.14,16.56-13.7-7.41-13.7-16.56-13.7-16.56,6.14-16.56,13.7Z"/>
    <path class="cls-10" d="M63.49,26.55c0-3.57,1.02-6.89,2.77-9.71.3-.58.64-1.26.99-1.97C75.35,5.75,87.16,0,100.32,0s25.42,5.98,33.54,15.4c.82,1.64,1.29,3.48,1.29,5.44,0,6.78-5.5,12.28-12.28,12.28-.58,0-.79-.04-1.71-.13-6.23-.29-11.99.97-16.37,2.89-5.08,2.23-10.6,6.16-16.71,8.21-.35.12-.7.23-1.06.33-.28.08-.54.14-.81.21-.17.04-.34.09-.51.12-.45.09-.88.16-1.27.2,0,0,0,0,0,0-.78.1-1.57.17-2.37.17-10.25,0-18.56-8.31-18.56-18.55Z"/>
    <path class="cls-1" d="M84.89,14.06c5.15-3.03,6.72-5.89,7.13-6.92,1.26-3.79,5.38-6.66,10.44-7.08,12.55.6,23.72,6.42,31.4,15.34.82,1.64,1.29,3.48,1.29,5.44,0,6.78-5.5,12.28-12.28,12.28-.58,0-.79-.04-1.71-.13-6.23-.29-11.99.97-16.37,2.89-5.08,2.23-10.6,6.16-16.71,8.21-.35.12-.7.23-1.06.33-.28.08-.54.14-.81.21-.17.04-.34.09-.51.12-.12.03-.23.03-.35.06,1.58-1.48,1.97-3.16,1.91-5-.58-5.68-3.86-9.63-5.41-11.21-.18-.16-.34-.32-.5-.49-.19-.18-.31-.28-.31-.28,0,0,0-.03,0-.05-1.37-1.55-2.17-3.42-2.17-5.45,0-3.53,2.42-6.6,6.03-8.25Z"/>
    <path class="cls-4" d="M124.27,17.45c-.98,4.22-7.09,6.42-13.66,4.9-6.56-1.52-11.1-6.18-10.12-10.4.98-4.22,7.09-6.42,13.66-4.9,6.57,1.52,11.1,6.18,10.12,10.4Z"/>
  </g>
  <path class="cls-6" d="M143.1,80.84c0,19.29-15.64,34.92-34.92,34.92s-34.92-15.63-34.92-34.92,15.64-34.92,34.92-34.92,34.92,15.63,34.92,34.92Z"/>
  <g>
    <path class="cls-9" d="M111.59,80.29c-.54,0-1.08.04-1.61.08h0c-.33.03-.66.05-1,.05-6.04,0-10.96-4.72-11.32-10.67,0-.22.02-.43.02-.65,0-26.97-21.87-48.84-48.84-48.84S0,42.14,0,69.11s21.87,48.84,48.84,48.84c.28,0,.56-.02.84-.02v.02h61.46v-.02c.15,0,.3.02.46.02,10.4,0,18.83-8.43,18.83-18.83s-8.43-18.83-18.83-18.83Z"/>
    <path class="cls-11" d="M117.46,110.87c0,3.91-3.17,7.08-7.07,7.08H46.23c-3.91,0-7.07-3.17-7.07-7.08h0c0-3.91,3.17-7.07,7.07-7.07h64.16c3.91,0,7.07,3.17,7.07,7.07h0Z"/>
    <g>
      <path class="cls-13" d="M8.53,52.47c0-4.28,1.12-8.26,3.03-11.65.33-.7.7-1.51,1.08-2.36,8.89-10.93,21.84-17.83,36.27-17.83s27.88,7.17,36.78,18.47c.9,1.97,1.42,4.17,1.42,6.52,0,8.13-6.03,14.72-13.46,14.72-.64,0-.86-.04-1.88-.16-6.83-.35-13.15,1.17-17.95,3.47-5.57,2.67-11.62,7.39-18.33,9.85-.38.14-.77.27-1.16.39-.31.1-.6.17-.88.25-.19.05-.37.1-.56.15-.49.11-.96.2-1.4.24,0,0,0,0,0,0-.85.12-1.72.2-2.6.2-11.24,0-20.35-9.96-20.35-22.26Z"/>
      <path class="cls-5" d="M31.99,37.49c5.65-3.64,7.37-7.06,7.82-8.3,1.38-4.55,5.9-7.99,11.45-8.5,13.76.72,26.01,7.7,34.43,18.4.9,1.97,1.42,4.17,1.42,6.52,0,8.13-6.03,14.72-13.46,14.72-.64,0-.86-.04-1.88-.16-6.83-.35-13.15,1.17-17.95,3.47-5.57,2.67-11.62,7.39-18.33,9.85-.38.14-.77.27-1.16.39-.31.1-.6.17-.88.25-.19.05-.37.1-.56.15-.14.03-.25.04-.39.06,1.73-1.77,2.17-3.79,2.09-5.99-.63-6.82-4.23-11.55-5.93-13.45-.19-.19-.37-.39-.55-.59-.21-.21-.34-.33-.34-.33,0,0,0-.04,0-.06-1.5-1.86-2.38-4.11-2.38-6.54,0-4.23,2.66-7.91,6.61-9.9Z"/>
      <path class="cls-4" d="M75.18,41.56c-1.07,5.07-7.78,7.7-14.98,5.87-7.2-1.82-12.17-7.41-11.1-12.47,1.07-5.07,7.78-7.7,14.98-5.87,7.2,1.82,12.17,7.41,11.1,12.47Z"/>
    </g>
  </g>
  <g>
    <path class="cls-2" d="M24.8,140.86c2.99,5.98,10.26,8.39,16.24,5.4,5.97-2.99,8.39-10.26,5.4-16.24-5.71-11.4-4.09-11.48-16.24-5.4-5.97,2.99-8.39,10.26-5.4,16.24Z"/>
    <path class="cls-3" d="M38.95,128.52c-.11-2.07-2.21-3.64-4.71-3.51-2.5.12-4.44,1.9-4.33,3.97.11,2.07,2.21,3.64,4.71,3.51,2.5-.13,4.44-1.9,4.33-3.97Z"/>
    <path class="cls-7" d="M45.87,138.85c.05.97-.18,1.89-.62,2.69-.07.16-.16.35-.24.55-2.09,2.6-5.23,4.33-8.83,4.52-3.66.19-7.03-1.28-9.37-3.74-.25-.44-.4-.93-.43-1.47-.09-1.85,1.33-3.43,3.18-3.52.16,0,.21,0,.47.01,1.71,0,3.26-.43,4.43-1.02,1.36-.68,2.81-1.83,4.45-2.47.09-.04.19-.07.28-.11.08-.03.15-.04.22-.07.04-.01.09-.03.14-.04.12-.03.24-.06.34-.07,0,0,0,0,0,0,.21-.04.43-.07.65-.08,2.8-.14,5.18,2.01,5.32,4.81Z"/>
    <path class="cls-8" d="M40.17,142.56c-1.36.9-1.75,1.7-1.85,1.98-.29,1.05-1.37,1.89-2.75,2.07-3.43.01-6.55-1.42-8.76-3.75-.25-.44-.4-.93-.43-1.46-.09-1.85,1.33-3.42,3.18-3.51.16,0,.21,0,.47.01,1.7,0,3.25-.43,4.42-1.01,1.35-.68,2.8-1.83,4.44-2.47.09-.04.19-.07.29-.1.08-.03.15-.04.22-.07.05-.01.09-.03.14-.04.03,0,.06-.01.09-.02-.41.42-.49.89-.45,1.39.24,1.54,1.18,2.57,1.63,2.98.05.04.1.08.14.13.05.04.09.07.09.07h0c.39.42.64.92.67,1.47.05.96-.57,1.83-1.53,2.33Z"/>
    <path class="cls-3" d="M29.39,142.17c.21-1.16,1.84-1.84,3.65-1.52,1.81.32,3.11,1.53,2.9,2.69-.21,1.16-1.84,1.84-3.65,1.52-1.81-.32-3.11-1.53-2.9-2.69Z"/>
  </g>
  <g>
    <path class="cls-2" d="M92.42,146.01c3.14,6.27,10.77,8.81,17.04,5.67,6.27-3.14,8.81-10.77,5.67-17.04-5.99-11.96-4.29-12.05-17.04-5.67-6.27,3.14-8.81,10.77-5.67,17.04Z"/>
    <path class="cls-3" d="M107.47,132.99c-.11-2.17-2.32-3.82-4.95-3.69-2.62.13-4.66,2-4.55,4.17.11,2.17,2.32,3.82,4.95,3.69,2.62-.13,4.66-2,4.55-4.17Z"/>
    <path class="cls-7" d="M114.53,143.9c.05,1.02-.19,1.99-.65,2.82-.08.17-.16.37-.25.58-2.19,2.73-5.49,4.55-9.26,4.74-3.85.2-7.37-1.34-9.84-3.93-.26-.46-.42-.98-.45-1.54-.1-1.94,1.4-3.6,3.34-3.7.17,0,.22,0,.49.01,1.79,0,3.42-.45,4.65-1.07,1.42-.71,2.95-1.92,4.67-2.6.1-.04.2-.08.3-.11.08-.03.15-.05.23-.07.05-.01.09-.03.14-.04.13-.04.25-.06.36-.08h0c.22-.04.45-.07.68-.08,2.94-.15,5.44,2.11,5.59,5.05Z"/>
    <path class="cls-8" d="M108.55,147.79c-1.43.94-1.83,1.78-1.94,2.08-.3,1.1-1.44,1.98-2.88,2.18-3.6,0-6.87-1.49-9.2-3.93-.26-.46-.42-.98-.45-1.54-.1-1.94,1.39-3.59,3.33-3.69.16,0,.22,0,.49.01,1.79,0,3.41-.45,4.64-1.06,1.42-.71,2.94-1.91,4.66-2.59.1-.04.2-.08.3-.11.08-.03.15-.05.23-.07.05-.01.09-.03.14-.04.04,0,.07-.01.1-.02-.43.45-.52.93-.47,1.46.25,1.62,1.24,2.7,1.71,3.13.05.04.1.09.15.13.06.05.09.08.09.08h0c.41.44.67.96.7,1.54.05,1.01-.6,1.92-1.6,2.45Z"/>
    <path class="cls-3" d="M97.24,147.39c.22-1.22,1.94-1.94,3.83-1.6,1.9.34,3.26,1.61,3.04,2.83-.22,1.22-1.94,1.94-3.83,1.6-1.9-.34-3.26-1.61-3.04-2.83Z"/>
  </g>
  <g>
    <path class="cls-2" d="M56.72,161.64c2.52,5.03,8.64,7.07,13.67,4.55,5.03-2.52,7.06-8.64,4.54-13.67-4.81-9.6-3.45-9.67-13.67-4.55-5.03,2.52-7.07,8.64-4.55,13.67Z"/>
    <path class="cls-3" d="M68.01,151.47c-.09-1.74-1.86-3.06-3.97-2.96-2.1.11-3.73,1.6-3.65,3.34.09,1.74,1.86,3.06,3.97,2.96,2.1-.11,3.73-1.6,3.65-3.34Z"/>
    <path class="cls-7" d="M74.47,159.95c.04.82-.16,1.6-.52,2.27-.06.14-.13.3-.2.46-1.76,2.19-4.41,3.65-7.43,3.8-3.09.16-5.92-1.08-7.89-3.15-.21-.37-.34-.78-.36-1.23-.08-1.56,1.12-2.88,2.68-2.96.13,0,.18,0,.4.01,1.44,0,2.75-.36,3.73-.86,1.14-.57,2.37-1.54,3.75-2.08.08-.03.16-.06.24-.09.06-.02.12-.04.18-.05.04-.01.08-.03.12-.04.1-.03.2-.05.29-.06h0c.18-.03.36-.06.54-.07,2.36-.12,4.36,1.7,4.48,4.05Z"/>
    <path class="cls-8" d="M69.66,163.07c-1.15.76-1.47,1.43-1.55,1.67-.25.88-1.16,1.59-2.31,1.74-2.88,0-5.52-1.2-7.38-3.15-.21-.37-.34-.78-.36-1.23-.08-1.55,1.12-2.88,2.67-2.96.13,0,.18,0,.39.01,1.43,0,2.74-.36,3.72-.85,1.14-.57,2.36-1.54,3.74-2.08.08-.03.16-.06.24-.09.06-.02.12-.04.18-.06.04-.01.08-.02.12-.04.03,0,.05,0,.08-.02-.34.36-.42.75-.38,1.17.2,1.3,1,2.16,1.37,2.51.04.04.08.07.12.11.05.04.08.06.08.06h0c.33.35.54.77.56,1.24.04.81-.48,1.54-1.29,1.96Z"/>
    <path class="cls-3" d="M60.59,162.75c.17-.98,1.55-1.55,3.08-1.28,1.52.27,2.62,1.29,2.44,2.27-.17.98-1.55,1.55-3.08,1.28-1.52-.27-2.62-1.29-2.44-2.27Z"/>
  </g>
</svg>