<?xml version="1.0" encoding="UTF-8"?>
<svg id="Layer_1" data-name="Layer 1" xmlns="http://www.w3.org/2000/svg" viewBox="0 0 156.94 174.58">
  <defs>
    <style>
      .cls-1 {
        fill: #41b4ec;
      }

      .cls-2 {
        fill: #57e7fd;
      }

      .cls-3 {
        fill: #fff;
      }

      .cls-4 {
        fill: #fbfbfb;
      }

      .cls-5 {
        fill: #53c5f2;
      }

      .cls-6 {
        fill: #3fd8e8;
      }

      .cls-7 {
        fill: #f1f1f1;
      }

      .cls-8 {
        fill: #edeae8;
      }

      .cls-9 {
        fill: #e8e1d0;
      }

      .cls-10 {
        fill: #f7f7f7;
      }
    </style>
  </defs>
  <g>
    <path class="cls-1" d="M12.12,141.43c3.76,7.5,12.88,10.54,20.38,6.78,7.5-3.76,10.53-12.88,6.78-20.38-7.17-14.31-5.14-14.41-20.38-6.78-7.5,3.76-10.53,12.88-6.78,20.38Z"/>
    <path class="cls-2" d="M29.89,125.94c-.13-2.59-2.78-4.57-5.91-4.41-3.13.16-5.57,2.39-5.44,4.98.13,2.59,2.78,4.57,5.91,4.41s5.57-2.39,5.44-4.99Z"/>
    <path class="cls-5" d="M38.58,138.91c.06,1.22-.23,2.38-.78,3.38-.09.2-.2.44-.3.69-2.62,3.26-6.57,5.44-11.08,5.67-4.6.23-8.82-1.61-11.76-4.7-.31-.55-.5-1.17-.54-1.84-.12-2.32,1.67-4.3,4-4.42.2-.01.27,0,.59.02,2.14,0,4.1-.54,5.56-1.28,1.7-.85,3.53-2.3,5.59-3.1.12-.05.24-.09.36-.13.09-.03.18-.06.27-.08.06-.02.11-.04.17-.05.15-.04.3-.07.43-.09,0,0,0,0,0,0,.27-.05.53-.08.81-.1,3.51-.18,6.5,2.53,6.68,6.04Z"/>
    <path class="cls-6" d="M31.42,143.56c-1.71,1.13-2.19,2.13-2.32,2.49-.36,1.32-1.72,2.37-3.45,2.6-4.3.01-8.22-1.79-11-4.7-.31-.55-.5-1.17-.54-1.84-.12-2.32,1.67-4.29,3.98-4.41.2,0,.27,0,.59.02,2.14,0,4.08-.54,5.55-1.27,1.7-.85,3.52-2.29,5.57-3.1.12-.05.24-.09.36-.13.09-.03.18-.06.27-.08.06-.02.11-.04.17-.05.04-.01.08-.02.12-.02-.51.53-.62,1.11-.57,1.74.3,1.93,1.49,3.23,2.04,3.74.06.05.12.1.18.16.07.06.11.09.11.09v.02c.49.5.8,1.13.84,1.83.06,1.2-.72,2.3-1.92,2.93Z"/>
    <path class="cls-2" d="M17.89,143.08c.26-1.46,2.31-2.32,4.59-1.91,2.27.41,3.9,1.92,3.64,3.38-.26,1.46-2.31,2.32-4.59,1.91-2.27-.41-3.9-1.92-3.64-3.38Z"/>
  </g>
  <g>
    <path class="cls-1" d="M97,147.89c3.94,7.87,13.52,11.05,21.39,7.11,7.87-3.94,11.06-13.52,7.11-21.39-7.52-15.02-5.39-15.12-21.39-7.11-7.87,3.94-11.05,13.52-7.11,21.39Z"/>
    <path class="cls-2" d="M115.89,131.55c-.14-2.72-2.92-4.79-6.21-4.63-3.29.17-5.84,2.51-5.71,5.23.14,2.72,2.92,4.79,6.21,4.63,3.29-.17,5.84-2.51,5.71-5.23Z"/>
    <path class="cls-5" d="M124.76,145.25c.06,1.28-.24,2.5-.82,3.54-.1.21-.21.46-.32.73-2.75,3.43-6.89,5.71-11.63,5.95-4.83.25-9.25-1.69-12.34-4.93-.32-.58-.53-1.23-.56-1.93-.12-2.44,1.75-4.52,4.19-4.64.21-.01.28,0,.62.02,2.25,0,4.3-.57,5.84-1.34,1.79-.89,3.7-2.41,5.86-3.26.12-.05.25-.09.38-.14.1-.04.19-.06.29-.09.06-.02.12-.04.18-.05.16-.04.31-.08.45-.09,0,0,0,0,0,0,.28-.05.56-.09.85-.1,3.69-.19,6.83,2.65,7.01,6.34Z"/>
    <path class="cls-6" d="M117.25,150.13c-1.79,1.18-2.3,2.23-2.43,2.61-.38,1.38-1.81,2.49-3.62,2.73-4.51.01-8.63-1.87-11.54-4.94-.32-.57-.53-1.22-.56-1.93-.12-2.43,1.75-4.5,4.18-4.63.21-.01.28,0,.62.02,2.24,0,4.28-.57,5.82-1.34,1.78-.89,3.69-2.4,5.85-3.25.12-.05.25-.1.37-.14.1-.03.19-.06.29-.09.06-.02.12-.04.18-.05.04-.01.08-.02.13-.03-.54.56-.65,1.17-.59,1.83.31,2.03,1.56,3.39,2.14,3.93.07.05.13.11.19.17.07.06.12.1.12.1,0,0,0,.01,0,.02.52.53.84,1.19.88,1.92.06,1.26-.75,2.41-2.01,3.07Z"/>
    <path class="cls-2" d="M103.05,149.63c.27-1.53,2.43-2.43,4.81-2,2.38.43,4.09,2.01,3.82,3.55-.27,1.53-2.43,2.43-4.81,2-2.38-.43-4.09-2.02-3.82-3.55Z"/>
  </g>
  <g>
    <path class="cls-1" d="M52.2,167.51c3.16,6.31,10.85,8.87,17.16,5.71,6.31-3.16,8.87-10.84,5.71-17.16-6.03-12.05-4.32-12.13-17.16-5.71-6.31,3.16-8.87,10.84-5.71,17.16Z"/>
    <path class="cls-2" d="M66.37,154.75c-.11-2.19-2.34-3.85-4.98-3.71-2.64.13-4.69,2.01-4.58,4.2.11,2.18,2.34,3.85,4.98,3.71,2.64-.13,4.69-2.01,4.58-4.2Z"/>
    <path class="cls-5" d="M74.47,165.4c.05,1.03-.19,2-.66,2.84-.08.17-.17.37-.26.58-2.21,2.75-5.53,4.58-9.33,4.77-3.87.2-7.42-1.35-9.9-3.96-.26-.46-.42-.98-.45-1.55-.1-1.96,1.41-3.62,3.36-3.72.17,0,.23,0,.5.01,1.8,0,3.45-.46,4.68-1.08,1.43-.72,2.97-1.93,4.7-2.61.1-.04.2-.08.3-.11.08-.03.15-.05.23-.07.05-.01.1-.03.14-.04.13-.03.25-.06.36-.08,0,0,0,0,0,0,.22-.04.45-.07.68-.08,2.96-.15,5.48,2.13,5.63,5.08Z"/>
    <path class="cls-6" d="M68.44,169.31c-1.44.95-1.85,1.79-1.95,2.1-.31,1.11-1.45,1.99-2.9,2.19-3.62.01-6.92-1.5-9.26-3.96-.26-.46-.42-.98-.45-1.55-.1-1.95,1.4-3.61,3.36-3.71.17,0,.23,0,.5.01,1.8,0,3.44-.46,4.67-1.07,1.43-.72,2.96-1.93,4.69-2.61.1-.04.2-.08.3-.11.08-.03.15-.05.23-.07.05-.01.09-.03.14-.04.04-.01.07-.01.1-.02-.43.45-.52.94-.48,1.47.25,1.63,1.25,2.72,1.72,3.15.05.04.1.09.15.13.06.05.09.08.09.08,0,0,0,0,0,.01.42.43.68.95.71,1.54.05,1.01-.6,1.93-1.62,2.46Z"/>
    <path class="cls-2" d="M57.06,168.9c.22-1.23,1.95-1.95,3.86-1.61,1.91.34,3.28,1.62,3.06,2.85-.22,1.23-1.95,1.95-3.86,1.61-1.91-.34-3.28-1.62-3.06-2.85Z"/>
  </g>
  <path class="cls-9" d="M156.94,73.14c0,19.29-15.64,34.92-34.92,34.92s-34.92-15.64-34.92-34.92,15.64-34.92,34.92-34.92,34.92,15.64,34.92,34.92Z"/>
  <g>
    <path class="cls-7" d="M131.39,70.67c-.64,0-1.27.04-1.9.09h0c-.38.03-.78.06-1.17.06-7.11,0-12.91-5.55-13.33-12.56,0-.25.02-.51.02-.76C115.01,25.74,89.26,0,57.5,0S0,25.74,0,57.5s25.75,57.5,57.5,57.5c.33,0,.65-.02.98-.02v.02h72.36v-.03c.18,0,.36.03.54.03,12.24,0,22.17-9.92,22.17-22.17s-9.93-22.17-22.17-22.17Z"/>
    <path class="cls-8" d="M138.3,106.68c0,4.6-3.73,8.33-8.33,8.33H54.43c-4.6,0-8.33-3.73-8.33-8.33h0c0-4.6,3.73-8.33,8.33-8.33h75.54c4.6,0,8.33,3.73,8.33,8.33h0Z"/>
    <g>
      <path class="cls-10" d="M10.04,37.91c0-5.04,1.32-9.72,3.57-13.72.39-.82.82-1.78,1.27-2.78C25.35,8.54,40.6.42,57.59.42s32.83,8.44,43.3,21.75c1.05,2.31,1.67,4.92,1.67,7.68,0,9.58-7.1,17.33-15.85,17.33-.75,0-1.02-.05-2.21-.19-8.05-.42-15.48,1.37-21.13,4.08-6.56,3.15-13.69,8.7-21.58,11.59-.45.17-.91.32-1.37.47-.36.11-.7.2-1.04.29-.22.05-.43.12-.66.17-.58.13-1.13.23-1.65.28,0,0,0,0-.01,0-1,.14-2.02.24-3.06.24-13.23,0-23.96-11.73-23.96-26.21Z"/>
      <path class="cls-4" d="M37.66,20.28c6.65-4.28,8.67-8.31,9.21-9.77,1.62-5.35,6.95-9.41,13.48-10,16.2.85,30.63,9.07,40.54,21.67,1.05,2.31,1.67,4.92,1.67,7.68,0,9.58-7.1,17.33-15.85,17.33-.75,0-1.02-.05-2.21-.19-8.05-.42-15.48,1.37-21.13,4.08-6.56,3.15-13.69,8.7-21.58,11.59-.45.17-.91.32-1.37.47-.36.11-.7.2-1.04.29-.22.05-.43.12-.66.17-.16.04-.3.04-.45.08,2.03-2.09,2.55-4.46,2.47-7.05-.75-8.03-4.98-13.6-6.98-15.84-.23-.22-.44-.45-.65-.69-.25-.25-.4-.4-.4-.4,0,0,0-.04,0-.07-1.76-2.19-2.81-4.84-2.81-7.7,0-4.98,3.13-9.31,7.78-11.66Z"/>
      <path class="cls-3" d="M88.52,25.07c-1.26,5.97-9.16,9.06-17.64,6.91-8.48-2.15-14.33-8.72-13.07-14.69,1.26-5.97,9.16-9.06,17.64-6.91,8.48,2.14,14.33,8.72,13.07,14.69Z"/>
    </g>
  </g>
</svg>