<?xml version="1.0" encoding="UTF-8"?>
<svg id="Layer_1" data-name="Layer 1" xmlns="http://www.w3.org/2000/svg" viewBox="0 0 156.94 185.5">
  <defs>
    <style>
      .cls-1 {
        fill: #41b4ec;
      }

      .cls-2 {
        fill: #57e7fd;
      }

      .cls-3 {
        fill: #fff;
      }

      .cls-4 {
        fill: #fdef79;
      }

      .cls-5 {
        fill: #fbfbfb;
      }

      .cls-6 {
        fill: #fbd700;
      }

      .cls-7 {
        fill: #53c5f2;
      }

      .cls-8 {
        fill: #3fd8e8;
      }

      .cls-9 {
        fill: #f1f1f1;
      }

      .cls-10 {
        fill: #f9c400;
      }

      .cls-11 {
        fill: #edeae8;
      }

      .cls-12 {
        fill: #e8e1d0;
      }

      .cls-13 {
        fill: #f9bc00;
      }

      .cls-14 {
        fill: #fbe100;
      }

      .cls-15 {
        fill: #f7f7f7;
      }
    </style>
  </defs>
  <g>
    <path class="cls-13" d="M94.63,129.31c0-4.39-3.45-7.96-7.78-8.18h0s-.22-.01-.22-.01c-.06,0-.13,0-.19,0s-.13,0-.19,0c-10.61,0-21.63,0-32.25,0h0c-.71,0-1.42,0-2.17,0-4.53,0-8.2,3.67-8.2,8.2s3.67,8.2,8.2,8.2h35.02v-.02c4.33-.22,7.78-3.79,7.78-8.17Z"/>
    <path class="cls-10" d="M90.07,121.96c-3.93-1.94-8.66-.43-10.78,3.36h0s-.1.19-.1.19c-.03.06-.07.11-.09.17-.03.06-.05.12-.08.18-4.69,9.51-9.57,19.4-14.27,28.92h0c-.32.63-.64,1.27-.97,1.94-2,4.06-.34,8.97,3.72,10.98,4.06,2,8.97.33,10.98-3.72l15.49-31.41h-.02c1.72-3.99.04-8.66-3.89-10.61Z"/>
    <path class="cls-10" d="M70.77,90.92c-3.93-1.94-8.66-.43-10.78,3.36h0s-.1.19-.1.19c-.03.06-.06.11-.09.17s-.05.12-.08.18c-4.69,9.51-9.57,19.4-14.27,28.92h0c-.32.63-.64,1.27-.97,1.94-2,4.06-.33,8.97,3.72,10.98,4.06,2,8.97.33,10.98-3.73l15.5-31.41h-.02c1.72-3.99.04-8.66-3.89-10.6Z"/>
    <path class="cls-13" d="M82.06,175.78l.07-.05h0c1.17-.93,2.11-2.17,2.65-3.68,1.45-4.05-.49-8.49-4.34-10.23h0s-.09-.04-.09-.04c-.17-.08-.34-.15-.51-.21s-.35-.11-.53-.16l-14.39-5.15c-.17-.07-.34-.15-.51-.21-4.26-1.53-8.95.69-10.48,4.95-.72,2.02-.6,4.13.18,5.96l2.97,11.19c.32,3.04,2.32,5.77,5.38,6.87,2.73.98,5.63.41,7.77-1.24l10.97-7.41c.31-.18.6-.38.88-.59Z"/>
    <g>
      <path class="cls-6" d="M71.87,181.46c-1.38.62-2.79.92-4.1.93-.26.02-.57.04-.89.07-4.55-.66-8.26-2.95-9.93-6.62-1.7-3.74-.92-8.14,1.69-12.06.53-.52,1.18-.97,1.93-1.31,2.62-1.19,5.43-.62,6.29,1.27.07.16.09.22.16.5.68,1.79,1.9,3.17,3.19,4.06,1.51,1.03,3.72,1.87,5.29,3.22.09.08.18.16.26.24.07.06.12.12.18.19.04.04.08.08.11.12.09.11.18.22.24.32h0c.14.2.26.41.37.63,1.3,2.86-.85,6.63-4.8,8.43Z"/>
      <path class="cls-14" d="M64.34,177.68c-1.82-.91-3.12-.84-3.57-.78-1.62.31-3.25-.33-4.06-1.67-1.36-3.6-.53-7.74,1.93-11.45.53-.52,1.18-.97,1.93-1.31,2.62-1.19,5.43-.62,6.29,1.27.07.16.09.22.16.5.68,1.79,1.9,3.17,3.19,4.06,1.51,1.03,3.72,1.87,5.29,3.22.09.08.18.16.26.24.07.06.12.12.18.19.04.04.08.08.11.12.03.03.04.06.07.09-.77-.18-1.47,0-2.17.34-2.12,1.16-3.23,2.77-3.64,3.48-.04.08-.08.15-.13.23-.04.09-.07.14-.07.14,0,0-.01,0-.02,0-.42.65-1.04,1.21-1.83,1.56-1.36.62-2.85.48-3.95-.23Z"/>
      <path class="cls-4" d="M60.65,166.1c1.75-.47,3.38.85,3.62,2.95.25,2.1-.98,4.18-2.73,4.65-1.75.47-3.38-.85-3.62-2.95-.25-2.1.97-4.18,2.73-4.65Z"/>
    </g>
    <path class="cls-10" d="M74.16,164.45c-1.19,1.56-.63,4,1.26,5.44,1.89,1.44,4.39,1.34,5.58-.22,1.19-1.56.62-4-1.26-5.44-1.89-1.44-4.38-1.34-5.58.22Z"/>
    <path class="cls-6" d="M44.12,129.45c0,3.8,3.39,6.88,7.58,6.88s7.58-3.08,7.58-6.88-3.39-6.88-7.58-6.88-7.58,3.08-7.58,6.88Z"/>
    <ellipse class="cls-6" cx="86.31" cy="129.11" rx="7.58" ry="6.88"/>
    <path class="cls-6" d="M59.6,97.91c0,3.8,3.39,6.88,7.58,6.88s7.58-3.08,7.58-6.88-3.39-6.88-7.58-6.88-7.58,3.08-7.58,6.88Z"/>
  </g>
  <path class="cls-12" d="M156.94,73.14c0,19.29-15.64,34.92-34.92,34.92s-34.92-15.63-34.92-34.92,15.64-34.92,34.92-34.92,34.92,15.63,34.92,34.92Z"/>
  <g>
    <path class="cls-9" d="M131.39,70.67c-.64,0-1.27.04-1.9.1h0c-.39.03-.78.06-1.17.06-7.11,0-12.91-5.55-13.33-12.56,0-.26.02-.51.02-.76C115.01,25.75,89.26,0,57.5,0S0,25.75,0,57.5s25.75,57.5,57.5,57.5c.33,0,.65-.02.98-.02v.02h72.36v-.03c.18,0,.36.03.54.03,12.24,0,22.17-9.92,22.17-22.17s-9.93-22.17-22.17-22.17Z"/>
    <path class="cls-11" d="M138.3,106.68c0,4.6-3.73,8.33-8.33,8.33H54.43c-4.6,0-8.33-3.73-8.33-8.33h0c0-4.6,3.73-8.33,8.33-8.33h75.54c4.6,0,8.33,3.73,8.33,8.33h0Z"/>
    <g>
      <path class="cls-15" d="M10.04,37.91c0-5.04,1.32-9.72,3.57-13.72.39-.82.82-1.78,1.27-2.78C25.35,8.54,40.6.42,57.59.42s32.83,8.44,43.3,21.75c1.05,2.31,1.67,4.92,1.67,7.68,0,9.58-7.1,17.34-15.85,17.34-.75,0-1.01-.05-2.21-.19-8.05-.42-15.48,1.37-21.13,4.08-6.56,3.15-13.69,8.71-21.58,11.59-.45.17-.91.32-1.37.47-.36.11-.7.2-1.04.29-.22.05-.43.12-.65.17-.58.13-1.14.23-1.65.28,0,0,0,0-.01,0-1,.14-2.02.24-3.06.24-13.23,0-23.96-11.73-23.96-26.21Z"/>
      <path class="cls-5" d="M37.67,20.28c6.65-4.28,8.67-8.31,9.21-9.77,1.62-5.35,6.95-9.41,13.48-10,16.2.85,30.62,9.07,40.54,21.67,1.05,2.31,1.67,4.92,1.67,7.68,0,9.58-7.1,17.34-15.85,17.34-.75,0-1.01-.05-2.21-.19-8.05-.42-15.48,1.37-21.13,4.08-6.56,3.15-13.69,8.71-21.58,11.59-.45.17-.91.32-1.37.47-.36.11-.7.2-1.04.29-.22.05-.43.12-.65.17-.16.04-.3.04-.46.08,2.04-2.09,2.55-4.46,2.46-7.05-.75-8.03-4.98-13.6-6.98-15.84-.23-.22-.44-.46-.65-.69-.25-.25-.4-.39-.4-.39,0,0,0-.05,0-.07-1.76-2.19-2.8-4.84-2.8-7.7,0-4.98,3.13-9.31,7.78-11.66Z"/>
      <path class="cls-3" d="M88.52,25.07c-1.26,5.97-9.16,9.06-17.64,6.91-8.48-2.15-14.33-8.72-13.06-14.69,1.26-5.97,9.16-9.06,17.64-6.91,8.48,2.14,14.33,8.72,13.07,14.69Z"/>
    </g>
  </g>
  <g>
    <path class="cls-1" d="M3.87,133.93c3.76,7.5,12.88,10.54,20.38,6.78,7.5-3.76,10.54-12.88,6.78-20.38-7.17-14.31-5.14-14.41-20.38-6.78-7.5,3.76-10.53,12.88-6.78,20.38Z"/>
    <path class="cls-2" d="M21.64,118.44c-.13-2.59-2.78-4.57-5.91-4.41-3.13.16-5.57,2.39-5.44,4.98.13,2.59,2.78,4.57,5.91,4.41,3.13-.16,5.57-2.39,5.44-4.98Z"/>
    <path class="cls-7" d="M30.33,131.42c.06,1.22-.23,2.38-.78,3.38-.09.2-.2.44-.3.69-2.62,3.26-6.57,5.44-11.08,5.67-4.6.23-8.82-1.61-11.76-4.7-.31-.55-.5-1.17-.54-1.84-.12-2.32,1.67-4.3,4-4.42.2-.01.27,0,.59.02,2.14,0,4.09-.54,5.56-1.28,1.7-.85,3.53-2.3,5.59-3.1.12-.05.24-.09.36-.13.09-.03.18-.06.27-.09.06-.02.11-.04.17-.05.15-.04.3-.07.43-.09t0,0c.27-.05.53-.08.81-.1,3.51-.18,6.5,2.53,6.68,6.04Z"/>
    <path class="cls-8" d="M23.17,136.06c-1.71,1.13-2.19,2.13-2.32,2.49-.36,1.32-1.72,2.37-3.45,2.6-4.3.01-8.22-1.79-11-4.7-.31-.55-.5-1.17-.54-1.84-.12-2.32,1.67-4.29,3.99-4.41.2,0,.27,0,.59.02,2.13,0,4.08-.54,5.55-1.27,1.7-.85,3.52-2.29,5.57-3.1.12-.05.24-.09.36-.13.09-.03.18-.06.27-.08.06-.02.11-.04.17-.05.04-.01.08-.02.12-.03-.51.53-.62,1.11-.57,1.74.3,1.93,1.49,3.23,2.04,3.74.06.05.12.1.18.16.07.06.11.09.11.09v.02c.49.5.8,1.13.84,1.83.06,1.2-.71,2.3-1.92,2.93Z"/>
    <path class="cls-2" d="M9.64,135.58c.26-1.46,2.31-2.32,4.59-1.91,2.27.41,3.9,1.92,3.64,3.38-.26,1.46-2.31,2.32-4.59,1.91-2.27-.41-3.9-1.92-3.64-3.38Z"/>
  </g>
  <g>
    <path class="cls-1" d="M98.5,148.39c3.94,7.87,13.52,11.06,21.39,7.11,7.87-3.94,11.06-13.52,7.11-21.39-7.52-15.02-5.39-15.12-21.39-7.11-7.87,3.94-11.05,13.52-7.11,21.39Z"/>
    <path class="cls-2" d="M117.39,132.05c-.14-2.72-2.92-4.79-6.2-4.63-3.29.17-5.84,2.51-5.71,5.23.14,2.72,2.92,4.79,6.21,4.63,3.29-.17,5.85-2.51,5.71-5.23Z"/>
    <path class="cls-7" d="M126.26,145.75c.06,1.28-.24,2.49-.82,3.54-.1.21-.21.46-.32.73-2.75,3.43-6.89,5.71-11.63,5.95-4.83.24-9.25-1.69-12.34-4.93-.32-.57-.53-1.23-.56-1.93-.12-2.44,1.75-4.52,4.19-4.64.21-.01.28,0,.62.02,2.25,0,4.3-.57,5.83-1.34,1.79-.89,3.7-2.41,5.86-3.26.12-.05.25-.09.38-.14.1-.03.19-.06.29-.09.06-.02.12-.04.18-.05.16-.04.31-.07.45-.09h0c.28-.05.56-.09.85-.1,3.69-.19,6.83,2.65,7.01,6.34Z"/>
    <path class="cls-8" d="M118.75,150.63c-1.79,1.18-2.3,2.23-2.43,2.61-.38,1.38-1.81,2.49-3.62,2.73-4.51.01-8.63-1.87-11.55-4.94-.32-.57-.53-1.23-.56-1.93-.12-2.43,1.75-4.5,4.18-4.63.21,0,.28,0,.62.02,2.24,0,4.28-.57,5.82-1.34,1.78-.89,3.69-2.4,5.85-3.25.12-.05.25-.09.37-.14.1-.04.19-.06.29-.09.06-.02.12-.04.18-.05.04-.01.08-.02.12-.03-.54.56-.65,1.17-.59,1.83.31,2.03,1.56,3.39,2.14,3.93.07.05.13.11.19.17.07.06.12.1.12.1,0,0,0,.01,0,.02.52.53.84,1.19.88,1.92.06,1.27-.75,2.41-2.01,3.07Z"/>
    <path class="cls-2" d="M104.55,150.13c.27-1.53,2.43-2.43,4.81-2,2.38.43,4.09,2.02,3.82,3.55-.27,1.53-2.43,2.43-4.81,2-2.38-.43-4.09-2.02-3.82-3.55Z"/>
  </g>
  <g>
    <path class="cls-1" d="M21.63,169.89c3.16,6.31,10.85,8.87,17.16,5.71,6.31-3.16,8.87-10.84,5.71-17.16-6.03-12.05-4.32-12.13-17.16-5.71-6.31,3.16-8.87,10.84-5.71,17.16Z"/>
    <path class="cls-2" d="M35.8,157.12c-.11-2.19-2.34-3.85-4.98-3.71-2.64.13-4.69,2.01-4.58,4.2.11,2.18,2.34,3.85,4.98,3.71,2.64-.13,4.69-2.01,4.58-4.2Z"/>
    <path class="cls-7" d="M43.9,167.77c.05,1.03-.2,2-.66,2.84-.08.17-.17.37-.26.58-2.21,2.75-5.53,4.58-9.33,4.77-3.87.2-7.42-1.35-9.9-3.96-.26-.46-.42-.98-.45-1.55-.1-1.96,1.41-3.62,3.36-3.72.17,0,.23,0,.5.01,1.8,0,3.45-.46,4.68-1.08,1.43-.72,2.97-1.93,4.7-2.61.1-.04.2-.08.3-.11.08-.03.16-.05.23-.07.05-.01.1-.03.14-.04.13-.03.25-.06.36-.08t0,0c.22-.04.45-.07.68-.08,2.96-.15,5.48,2.13,5.63,5.08Z"/>
    <path class="cls-8" d="M37.87,171.68c-1.44.95-1.85,1.79-1.95,2.09-.31,1.11-1.45,2-2.9,2.19-3.62.01-6.92-1.5-9.26-3.96-.26-.46-.42-.98-.45-1.55-.1-1.95,1.4-3.61,3.36-3.71.17,0,.23,0,.5.01,1.8,0,3.44-.46,4.67-1.07,1.43-.72,2.96-1.93,4.69-2.61.1-.04.2-.08.3-.11.08-.03.15-.05.23-.07.05-.02.09-.03.14-.04.04,0,.07-.01.1-.02-.43.45-.52.94-.48,1.47.25,1.63,1.25,2.72,1.72,3.15.05.04.1.09.15.13.06.05.09.08.09.08h0c.42.44.67.97.71,1.55.05,1.01-.6,1.93-1.62,2.46Z"/>
    <path class="cls-2" d="M26.49,171.28c.22-1.23,1.95-1.95,3.86-1.61,1.91.34,3.29,1.62,3.06,2.85-.22,1.23-1.95,1.95-3.86,1.61-1.91-.34-3.28-1.62-3.06-2.85Z"/>
  </g>
</svg>